<svg xmlns="http://www.w3.org/2000/svg" width="900" height="162"><path fill="#fcfcfc" d="M0 27h900v109H0z"/><path fill="#91b2f0" d="M110 35c4 1 4 1 6.063 3.75 5.536 6.126 12.864 8.391 20.937 9.25 2.796 2.796 2.3 4.595 2.313 8.5C139.107 67.682 136.04 76.213 129 85c-3.144 2.97-6.47 5.51-10 8l-3.312 2.563c-3.296 1.762-4.177 1.494-7.688.437-10.11-5.729-19.475-14.911-23.418-26.04C83.296 63.42 83.376 56.62 84 50c2.52-2.52 4.22-2.604 7.688-3.312 5.4-1.258 8.952-3.18 13.312-6.688h2l2-4z"/><path fill="#92b2ef" d="M159 41c4 2 4 2 5.25 4.625L165 48l2.25-2.5C170 43 170 43 174 43c.288 5.575.08 9.27-3 14-4 3-4 3-6 3l1 5 2.25-2c2.75-2 2.75-2 6.75-2-.237 4.585-.69 7.499-3.125 11.438-3.377 3.01-5.42 3.387-9.875 3.562l1 4 2-1c2.333-.04 4.667-.043 7 0-.504 4.41-1.962 6.788-5 10-4.216 2.108-6.398 2.177-11 2l-2 5 2-1a256 256 0 0 1 8 0l1 4c-5.478 5.843-5.478 5.843-9.844 6.293a98 98 0 0 1-5.8-.375L147 105l-2 3 3.375.375C152 109 152 109 154 111v3c-5.219 3.479-8.72 4.639-15 4l-2-2c-3.125.375-3.125.375-6 1v2h5l4 3-1 4c-4.127 1.376-7.673 1.237-12 1l-4-3c-3.75-.187-3.75-.187-7 0v-4h4l-.25-4.125c.264-5.143.853-7.101 4.25-10.875l4-1c2.567 3.85 1.833 5.586 1 10l3-2c.214-3.056-.007-5.998-.187-9.055C132 100 132 100 135 96l4 1c1.75 3.563 1.75 3.563 3 7 1.125-4.75 1.125-4.75 0-7-.07-1.874-.084-3.75-.062-5.625l.027-3.04L142 86l4-1 5 7 1-4-2.437-3.875c-2.51-4.04-3.136-5.544-2.563-10.125 4.468.496 5.69.69 9 4v2h2c-1.028-4.215-2.177-6.198-5.125-9.5C150 67 150 67 149.625 63.563L150 61c5 0 5 0 7.813 2.5L160 66l1-6-2.187-.187c-4.745-1.371-7.15-4.818-9.813-8.813v-3c5.294-.504 7.814.81 12 4l-1-2.125c-1.09-3.135-1.153-5.58-1-8.875"/><path fill="#93b3ee" d="M61 41h3c-.875 7.625-.875 7.625-2 11h2v-2c3.644-2.43 5.712-2.162 10-2-1.255 5.018-3.402 7.333-7 11-2.875.938-2.875.938-5 1l1 6 2.188-2.5C68 61 68 61 73 61c-.475 4.987-1.892 8.07-5 12l-3 1v6h2l2-4 2-2h4c.49 6.014-1.053 8.866-4 14 .25 2.938.25 2.938 1 5l2.313-4L77 85h3c1.663 4.99 1.632 10.063 0 15.063L79 102l2 2 1.25-3.437L84 97l4-1c3.409 3.409 2.468 8.272 2.656 12.91L91 112l2 1-.125-2.812C93 107 93 107 95 104c4 1 4 1 6.188 4.125 1.768 3.78 2.475 6.742 2.812 10.875l3 1 1 4-3.687-.187C100 124 100 124 97.563 125.5c-3.867 2.263-7.177 1.809-11.563 1.5l-4-2c2.193-4.386 3.914-5.513 8-8-4-1-4-1-8 1-6.005.955-9.227-1.708-14-5l1-3c4.063-1.687 4.063-1.687 8-3l-1-3-3 1c-5.563.649-7.426.43-12-3l-3-3 1-4h9l-1-4-3.562.375C57.738 90.893 55.799 89.187 52 85c-.937-3.375-.937-3.375-1-6 4.3-.195 6.009.004 10 2v-5l-2.562.5c-4.646-.676-6.144-2.696-9.024-6.254-1.906-3.028-2.34-5.7-2.414-9.246 5.443 0 6.201.527 10 4l1-5-4-1c-2.697-2.312-3.866-3.597-5-7-.04-3-.043-6 0-9 3.674.306 4.781.758 7.313 3.563L58 49z"/><path fill="#293b5b" d="m730 66 2.688 1.625L735 69l4-2c3.991-.998 6.913-1.358 11-1 4.043 2.426 5.634 4.552 7 9 .162 2.638.215 5.283.195 7.926l-.02 4.6-.05 4.787-.027 4.845A2653 2653 0 0 1 757 109h-10l-.076-3.013q-.175-6.713-.361-13.424l-.12-4.745-.127-4.502-.11-4.173C746 76 746 76 745 75h-5c-2.454 3.68-2.306 5.68-2.414 10.074l-.117 4.21-.094 4.403-.117 4.44q-.142 5.436-.258 10.873h-9l-.076-3.013q-.175-6.713-.361-13.424l-.12-4.745-.127-4.502-.11-4.173C727 76 727 76 726 75h-5c-2.454 3.68-2.306 5.68-2.414 10.074l-.117 4.21-.094 4.403-.117 4.44q-.142 5.436-.258 10.873h-9V67h9l1 2c4.455-3.341 5.647-3.563 11-3"/><path fill="#2e405f" d="M345 52h10v22h14V52h10v57h-10V84h-14v25h-10z"/><path fill="#283a5a" d="M660 66c4.862 2.008 7.788 5.532 10.09 10.219 2.793 8.534 1.533 18.434-1.875 26.597-2.026 3.64-4.583 5.368-8.215 7.184-8.818.58-8.818.58-13.437-1.687-5.716-5.158-7.232-11.075-7.825-18.66-.224-7.228.044-12.497 4.262-18.653 5.406-5.02 9.698-5.634 17-5"/><path fill="#293b5b" d="M441.813 66.688c2.94 1.763 4.325 3.411 6.187 6.312.454 3.872.454 3.872.39 8.363l-.038 4.873-.102 5.076q-.03 2.568-.055 5.135-.071 6.277-.195 12.553h-8v-3l-2.5 2c-4.264 2.437-6.656 2.615-11.5 2-3.28-2.068-4.847-3.771-7-7-.999-6.032-.714-9.945 2.75-15.062 4.173-3.772 6.97-5.209 12.5-5.063L439 83c-.875-7.875-.875-7.875-2-9q-3.51.43-7 1l-1 4h-8c-.5-4.208-.178-5.737 2.25-9.312 4.982-4.87 12.015-4.601 18.563-3"/><path fill="#253757" d="M494 51h9l1 18 4-3c5.03-.65 7.22-.54 11.438 2.375 4.163 4.265 3.68 6.784 3.66 12.695l-.01 4.903-.025 5.152q-.009 2.587-.014 5.176-.018 6.35-.049 12.699h-9l-.06-2.906c-.095-4.323-.205-8.646-.315-12.969-.03-1.51-.062-3.019-.094-4.574l-.117-4.356-.095-4.03C513 77 513 77 511 75h-5c-2.902 2.902-2.318 5.138-2.414 9.195l-.117 4.356-.094 4.574-.117 4.598Q503.116 103.36 503 109h-9z"/><path fill="#2a3c5b" d="M785.293 67.352c4.087 3.38 6.879 6.264 7.707 11.648.133 3.684.09 7.31 0 11h-21c1 9 1 9 3 11 3.125.125 3.125.125 6 0l2-5h9c-.413 5.269-1.23 8.23-5 12-4.776 2.388-8.788 2.542-14 2-4.842-2-7.71-5.498-10.09-10.113-1.246-3.954-1.25-7.56-1.285-11.7l-.086-4.644c.607-5.984 2.657-10.345 6.461-14.98 4.643-3.628 12.221-4.201 17.293-1.211"/><path fill="#243757" d="M546 52h29v8h-20v16h18v7h-18v18h21v8h-30z"/><path fill="#293b5b" d="M407.75 67.188c3.105 2.5 5.463 5.239 7.25 8.812.14 4.67.042 9.328 0 14h-21c2 9 2 9 4 11 3.125.125 3.125.125 6 0l2-5h9c-.39 5.45-2.265 8.087-6 12-4.47 2.98-8.759 2.607-14 2-4.51-2.174-6.858-4.49-9-9-1.073-4.291-1.168-7.955-1.187-12.375l-.043-4.46c.423-7.66 2.858-11.686 8.23-17.165 5.142-1.286 9.775-1.96 14.75.188"/><path fill="#304260" d="M201 52h29v9h-19v14h18v9h-18v25h-10z"/><path fill="#fff" d="M0 137h900v1H0z"/><path fill="#263858" d="M819 66c3.98 1.577 5.607 2.41 8 6 .17 2.791.214 5.59.195 8.387l-.008 2.475c-.011 2.609-.037 5.217-.062 7.826q-.016 2.652-.027 5.306-.035 6.503-.098 13.006h-9l-.076-3.013q-.175-6.713-.361-13.424l-.12-4.745-.127-4.502-.11-4.173C817 76 817 76 816 75c-2.937-.25-2.937-.25-6 0-2.454 3.68-2.306 5.68-2.414 10.074l-.117 4.21-.094 4.403-.117 4.44q-.142 5.436-.258 10.873h-9V67h9l1 2c4.477-3.358 5.62-3.556 11-3"/><path fill="#253858" d="M602 66c4.053 1.842 5.225 3.3 8 7 .34 3.759.34 3.759.293 8.266l-.03 4.882q-.036 2.551-.076 5.102-.022 2.574-.04 5.148Q610.092 102.7 610 109h-9l-.06-2.906c-.095-4.323-.205-8.646-.315-12.969l-.094-4.574-.117-4.356-.095-4.03C600 77 600 77 598 75h-5c-2.902 2.902-2.318 5.138-2.414 9.195l-.117 4.356-.094 4.574-.117 4.598Q590.116 103.36 590 109h-9V67h8v3l2.563-2c3.964-2.306 5.927-2.574 10.437-2"/><path fill="#2b3d5c" d="M291 66c4.666 1.673 7.383 3.773 10 8v5h-9l-1-4a129 129 0 0 0-6-1l-1 1v5l2.012.988C298.304 87.071 298.304 87.071 302 92c.367 4.349.508 7.73-1.125 11.813-3.082 3.595-5.681 5.864-10.5 6.574-4.568.18-7.692-.07-11.875-2.012-2.782-2.643-4.155-4.79-5.5-8.375v-4h9l3 6h5l2-2v-5l-3.176-1.54-4.137-2.085-4.113-2.04c-3.872-2.53-5.062-4.03-6.574-8.335-.483-4.488-.617-6.987 1.75-10.875 4.8-4.534 8.908-4.554 15.25-4.125"/><path fill="#2d3f5e" d="M473 56h10v11h7q.062 3.5 0 7l-1 1h-6l1 26 5 1q.062 3.5 0 7c-1 1-1 1-5.25 1.375C479 110 479 110 476 107.563L474 105l-1-1a143 143 0 0 1-.098-6.441l.01-3.955.026-4.166.013-4.178q.018-5.13.049-10.26h-5v-8h5z"/><path fill="#263859" d="M836 56h9v11h7v7h-7l1 27 6 1q.062 3.5 0 7c-1 1-1 1-5.187 1.375-5.59-.436-7.05-1.343-10.813-5.375-.681-3.413-.681-3.413-.586-7.27l.059-4.189.152-4.353.082-4.413q.107-5.388.293-10.775h-6v-7h6z"/><path fill="#27395a" d="M309 56h9v11h7v7h-7l1 27 5 1q.062 3.5 0 7c-1 1-1 1-5.25 1.313-5.11-.337-6.385-.633-9.75-4.313-.568-3.392-.568-3.392-.488-7.39l.049-4.337.127-4.523c.01-.754.01-.754.068-4.57q.089-5.59.244-11.18h-6v-7h6z"/><path fill="#2f415f" d="M676 51h10v58h-10zm-221 0h10v58h-10z"/><path fill="#233656" d="M693 51h9v58h-9z"/><path fill="#273a5a" d="M271 66v10l-3.312.75C264 78 264 78 261 82c-.432 2.933-.432 2.933-.512 6.297l-.107 3.652-.068 3.801-.104 3.848A1174 1174 0 0 0 260 109h-9V67h9l1 4 2.188-2.5C266 66 266 66 271 66"/><path fill="#263959" d="M637 66v10l-3.312.813C630 78 630 78 627 81c-.432 2.91-.432 2.91-.512 6.418l-.107 3.799-.068 3.97-.104 4.006q-.124 4.904-.209 9.807h-9V67h9l1 4 2.188-2.5C632 66 632 66 637 66"/><path fill="#f7fafc" d="M107 54h9v8h9v10h-9v8h-9v-8h-9V62h9z"/><path fill="#263959" d="M235 67h9v42h-9z"/><path fill="#f7f8f8" d="M655 73.563C658 74 658 74 661 77c.298 3.552.418 6.89.375 10.438l.035 2.892c-.022 5.271-.16 7.337-3.41 11.67-3.187.25-3.187.25-6 0-3.114-5.124-3.404-9.18-3.375-15.125l-.023-4.758c.465-4.81 1.209-7.798 6.398-8.555"/><path fill="#f2f3f5" d="M439 90c.375 7.5.375 7.5-3 12-3.062.375-3.062.375-6 0-2-2-2-2-2.375-5.437L428 93c4.423-3.317 5.72-3.305 11-3"/><path fill="#f3f4f6" d="M398 73c3.063.125 3.063.125 6 1 2.29 3.435 2.178 4.985 2 9h-11c-.187-3.312-.187-3.312 0-7z"/><path fill="#f5f6f7" d="M778.563 73.25C781 74 781 74 783 76c.125 3.625.125 3.625 0 7h-11c.313-3.875.313-3.875 1-8 3-2 3-2 5.563-1.75"/><path fill="#2a3b58" d="M235 51h9v10h-9z"/><path fill="#abc2eb" d="M89 98h1l.148 3.027.227 3.91c.07 1.288.14 2.576.21 3.903.138 1.043.274 2.086.415 3.16l2 1-.125-2.875C93 107 93 107 95 105v10l-5 2-2-2c.017-2.878.16-5.755.375-8.625l.336-4.727z"/><path fill="#606d81" d="m646 68 2 1c-2.165 3.883-4.326 7.435-7 11-.512 3.234-.512 3.234-.687 6.75l-.2 3.547L640 93h-1c-.426-8.42-.733-14.833 4-22z"/><path fill="#48566d" d="M847 102h5q.062 3.5 0 7c-1 1-1 1-5.562 1.063L842 110v-2h8v-4h-3z"/><path fill="#aac2ea" d="M135 96c4 1 4 1 6 4 .39 1.99.732 3.99 1 6h-2l-2-7-3 1c-1.187 4.063-1.187 4.063-2 8h-1c-.375-7.5-.375-7.5 3-12"/><path fill="#47556c" d="M485 102h4q.062 3.5 0 7c-1 1-1 1-5.562 1.063L479 110v-2h8l1-5z"/><path fill="#a2bbe9" d="m159 41 4 2c.75 3.625.75 3.625 1 7h-3c-2.29-3.435-2.178-4.985-2-9"/><path fill="#a5beea" d="M152 87h2c1.587 4.108 2.102 5.592 1 10h-2v-3h-4l1-4 1 2z"/><path fill="#96b5ea" d="m71 74 2 1a224 224 0 0 1-6 7h-2v-2h2l2-4z"/><path fill="#a4bce7" d="M47 61h5l2 3-5-1 1 4-3-2z"/><path fill="#e8f2f9" d="m79 98 4 2-1 5-4-3z"/><path fill="#415068" d="m770 67 2 1a159 159 0 0 1-5 6h-2c2-4 2-4 5-7"/><path fill="#3a4a67" d="m393 67 2 1-5 6-2-2z"/></svg>