<svg xmlns="http://www.w3.org/2000/svg" width="900" height="162"><path fill="#fff" d="M0 27h900v109H0z"/><path fill="#9ec5ff" d="M110 35c4.65 1.162 5.717 2.639 9 6 4.746 3.935 9.48 5.04 15.39 6.29C137 48 137 48 139 50c1.265 13.143-.655 22.93-8.68 33.383-3.665 4.134-7.785 7.48-12.32 10.617l-2.488 1.781C113 97 113 97 110.523 96.911c-11.342-4.092-19.522-14.1-24.578-24.614-1.998-4.855-2.109-9.235-2.132-14.422l-.044-4.32C84 50 84 50 86 48a88 88 0 0 1 5.125-1.312c6.686-1.742 11.807-4.526 16.625-9.563zm49 6h3l3 7 2.25-2.5C170 43 170 43 174 43c.266 5.847.39 10.09-3 15a790 790 0 0 1-5 3v4l3-3c3.188-.687 3.188-.687 6-1 1 3 1 3-.625 6.938-2.228 3.81-3.609 5.857-7.375 8.062h-5l1 4 2-1c2.333-.04 4.667-.043 7 0l1 2c-5.625 7.75-5.625 7.75-9 10-2.666.08-5.335.087-8 0l-1 4h9l1 4c-7.24 6.138-7.24 6.138-13.125 6.063L147 105l-1 2 8 3v4c-4.913 3.209-8.112 4.654-14 4a123 123 0 0 1-5-2l-2 1 4 2.875c2.25 1.617 2.25 1.617 4 3.125v2c-4.756 2.378-8.802 2.585-14 2-2.75-1.5-2.75-1.5-5-3-3.312-.187-3.312-.187-6 0v-4l4-1-1-4c1.448-4.706 2.494-7.494 6-11l4 1c1.125 6.75 1.125 6.75 0 9l3-2c.033-2.483.056-4.967-.016-7.45.02-3.207.612-5.668 2.016-8.55l3-1c3.106 3.106 3.813 4.892 5 9l2-3-1.437-3.187c-1.835-4.477-1.467-7.13-.563-11.813l4-1 5 7 1-4-1.875-2.187C147.242 81.997 147.28 78.69 147 74l3-1c3.688 2.438 3.688 2.438 7 5-1-4-1-4-3.5-6.25-3.202-3.522-3.263-6.088-3.5-10.75 3.375.25 3.375.25 7 1l2 4h2c-.062-2.25-.062-2.25-1-5a418 418 0 0 0-7-4c-2.5-3-2.5-3-4-6l1-4c3.735.498 5.812.875 9 3zm-98 0h3v9l2.75-1.562C70 47 70 47 74 48c-.506 4.425-1.9 6.816-5 10-3.25 1.813-3.25 1.813-6 3v4l2.188-2C68 61 68 61 73 61c-.267 6.55-2.749 9.206-7 14v4l2.25-2.5C71 74 71 74 75 74c.433 6.282-.49 8.905-4 14 .25 2.875.25 2.875 1 5l2.313-4L77 85h3c2.555 5.11.979 12.546 0 18l1 1 1.313-3.375C84 97 84 97 87 95c3.95 3.95 3.63 6.53 4 12v5l3 2-.625-2.75C93 108 93 108 95 104c4 1 4 1 6.25 4.125 1.821 4.032 2.106 6.515 1.75 10.875l4 1 1 3-2.187.375c-3.504.778-6.61 2.023-9.813 3.625-9.286.357-9.286.357-14-2l1-4c3.063-1.75 3.063-1.75 6-3l-1-2-2.062 1c-4.806 1.636-8.504 1.541-13.25-.25C70 115 70 115 68 111c3.123-1.995 5.342-3.085 9-4-3-2-3-2-7.25-1.75-6.158-.324-7.548-1.958-11.75-6.25l1-4h9l-2-3-4.25-.75C56.027 89.744 54.347 87.769 51 83l-1-3c1-1 1-1 4.438-1.125C58 79 58 79 60 80v-3l-3.687-.937C50.47 73.269 49.502 70.892 47 65l1-4c4.191.582 5.375 1.282 9 4v-4a187 187 0 0 0-6-4c-2.566-5.132-2.15-8.312-2-14 3.674.306 4.781.758 7.313 3.563L58 49z"/><path fill="#0b1d3a" d="M713.438 66.813C717 67 717 67 719 69l3-2c8.927-.687 8.927-.687 13.125 2L737 71v-2c4.871-2.436 8.636-2.74 14-2 3.098 2.191 3.803 3.41 5 7 .085 2.649.107 5.3.098 7.95l-.01 4.755-.025 4.983-.014 5.017Q756.03 102.852 756 109h-8l-.076-2.906q-.175-6.485-.361-12.969l-.12-4.574-.127-4.356-.11-4.03C747 77 747 77 746 75c-2.875-.187-2.875-.187-6 0-2.454 3.68-2.307 5.68-2.414 10.074l-.117 4.21-.094 4.403-.117 4.44q-.142 5.436-.258 10.873h-8l-.076-2.906q-.175-6.485-.361-12.969l-.12-4.574-.127-4.356-.11-4.03C728 77 728 77 727 75c-2.875-.187-2.875-.187-6 0-2.454 3.68-2.307 5.68-2.414 10.074l-.117 4.21-.094 4.403-.117 4.44q-.142 5.436-.258 10.873h-9q-.037-8.73-.055-17.462-.008-2.973-.02-5.945-.017-4.263-.023-8.527l-.015-2.702c0-2.121.05-4.243.113-6.364 1-1 1-1 4.438-1.187m-47.5 3.437c4.16 5.547 4.357 10.885 4.375 17.688l.05 4.652c-.447 5.43-1.81 9.429-5.176 13.722-4.041 3.118-7.167 3.735-12.25 3.5-6.166-1.272-6.166-1.272-8.937-3.812-5.015-8.946-5.932-19.778-3.27-29.73 2.256-4.907 5.508-8.196 10.52-10.145 5.572-.253 10.24.719 14.688 4.125M345 53h9v22l15-1 1-21h8v56h-8l-1-25-15-1v26h-8c-1.312-18.652-1.1-37.312-1-56m149-2h8c1 1 1 1 1.098 4.816l-.036 4.746-.027 4.754L503 69l4-2c8.868-.786 8.868-.786 13.063 2.125 3.378 5.013 3.059 10.34 3.035 16.242l-.01 4.18-.025 4.328-.014 4.398Q523.03 103.636 523 109h-9l-.076-2.906q-.175-6.485-.361-12.969l-.12-4.574-.127-4.356-.11-4.03C513 77 513 77 512 75c-4-1-4-1-7 0-1.87 4.225-2.23 7.875-2.16 12.457l.033 3.62.065 3.736q.051 3.697.09 7.394l.054 3.296C503 108 503 108 502 109h-8zm52 2h29v7h-20v16h18v7h-18v18h21l-1 8a4982 4982 0 0 1-13.937.063l-4.022.025-3.818.01-3.54.016C547 109 547 109 546 108a91 91 0 0 1-.114-5.162V99.5l.016-3.63.005-3.695c.005-3.913.018-7.826.03-11.739l.014-7.935c.01-6.5.03-13.001.049-19.502M445.563 69.75c2.979 4.663 2.557 10.242 2.535 15.617l-.01 4.18-.026 4.328-.013 4.398Q448.03 103.636 448 109h-8v-3l-3.562 2.063c-4.75 2.073-6.568 2.5-11.438.937-3.112-2.097-4.645-3.684-5.633-7.344-.759-5.362-.596-9.091 2.633-13.656 4.14-3.105 5.796-3.543 10.75-4.187 1.17-.16 2.34-.318 3.547-.481L439 83c.25-5.625.25-5.625-2-9-3.125-.187-3.125-.187-6 0l-2 5h-8c.281-3.658.49-6.273 2.625-9.312 6.795-4.828 15.107-4.603 21.938.062M784 67c3.716 2.178 5.358 3.804 7.375 7.563.941 5.177.742 10.178.625 15.437h-21c2 9 2 9 5 12 3.063 0 3.063 0 6-1 1.375-2.562 1.375-2.562 2-5h8c-.508 4.37-1.142 7.589-4 11-5.99 3.098-10.436 3.427-17 2-4.768-2.695-6.387-5.837-8-11-1.586-9.172-1.526-18.2 2.875-26.562C770.762 65.832 777.112 66.107 784 67m-378 0c4.265 1.688 6.043 3.89 8 8 1.585 5.043 1 9.48 1 15h-21c2 10 2 10 5 12 2.5-.062 2.5-.062 5-1l1.375-2.562L407 96c3.688-.312 3.688-.312 7 0-.411 5.242-1.126 8.336-5 12-5.1 2.609-9.478 2.15-15 1-4.656-2.673-5.845-4.617-7.875-9.625C383.815 90.11 384.531 81.852 388 73c5.436-6.496 9.868-6.647 18-6m175 0h8v3l1.875-1.5c4.408-2.116 8.318-2.329 13.125-1.5 3.063 2.063 3.063 2.063 5 5 .91 4.778 1.119 9.39 1.098 14.246l-.01 4.033-.025 4.159-.014 4.24q-.018 5.16-.049 10.322h-9l-.076-2.906q-.175-6.485-.361-12.969l-.12-4.574-.127-4.356-.11-4.03C600 77 600 77 599 75c-2.875-.125-2.875-.125-6 0-2.883 2.883-2.41 5.163-2.633 9.195l-.254 4.356-.238 4.574-.262 4.598q-.32 5.637-.613 11.277h-8zM201 53h28v7h-19v16h18v8h-18v25h-9zm601.438 13.813C806 67 806 67 808 69l4-2c7.861-.664 7.861-.664 12 1.75 3.691 4.153 3.117 8.791 3.098 14.078l-.01 4.61-.025 4.812-.014 4.86q-.018 5.944-.049 11.89h-8l-.06-2.69c-.095-4.02-.205-8.04-.315-12.06-.03-1.397-.062-2.795-.094-4.234l-.117-4.063-.095-3.745C818 79 818 79 816 75c-2.875-.187-2.875-.187-6 0-2.454 3.68-2.307 5.68-2.414 10.074l-.117 4.21-.094 4.403-.117 4.44q-.142 5.436-.258 10.873h-8q-.25-8.73-.482-17.462-.08-2.973-.166-5.945-.122-4.263-.23-8.527l-.083-2.702c-.052-2.12-.05-4.243-.039-6.364 1-1 1-1 4.438-1.187M296 68c3.175 2.787 3.932 4.096 4.25 8.313L300 79c-3.312.313-3.312.313-7 0-1.625-2.5-1.625-2.5-3-5h-5l-1 1v5c1.06.531 2.12 1.062 3.21 1.61l4.165 2.14 4.148 2.11C299 88 299 88 301 92c.3 4.745.528 8.45-1 12.938-3.035 3.129-5.8 3.982-10 5.062-5.338 0-8.1-.373-12.5-3.437-3.48-3.568-3.48-3.568-3.562-7.688L274 96c3.813.188 3.813.188 8 1a113 113 0 0 1 3 5c3.125.375 3.125.375 6 0 1-1 1-1 1.438-3.812C292 95 292 95 289.5 92.875A186 186 0 0 0 281.813 89C278 87 278 87 275 83c-.753-8.495-.753-8.495 1.5-13 6.135-4.908 12.349-4.419 19.5-2m13-11h9v10l2.938-.062C324 67 324 67 325 68c.04 2 .043 4 0 6h-7v28h6v7c-1.748.136-3.499.232-5.25.313l-2.953.175C313 109 313 109 310.85 106.91c-2.292-3.606-2.313-5.714-2.24-9.96l.038-4.053.102-4.21.055-4.267q.071-5.21.195-10.42h-5v-7h5zm527 0h9v10h7v7h-7l1 27 5 1v7l-4.75.188-2.672.105C841 109 841 109 837 106c-1.218-3.746-1.116-7.479-1.098-11.394l.01-3.643.025-3.775.014-3.835q.018-4.676.049-9.353h-5v-7h5zm-362 0h8v10h7v7h-7l1 28 6 1v6a209 209 0 0 1-5.25.25l-2.953.14c-3.65-.51-4.558-1.494-6.797-4.39-.546-3.208-.546-3.208-.61-6.953l-.097-4.063-.043-4.234-.09-4.281Q473.055 80.235 473 75l-5-1v-7h6zm219-6h8c1 1 1 1 1.12 3.284l-.006 3.062v3.458l-.016 3.762-.005 3.83c-.005 4.055-.018 8.111-.03 12.167l-.014 8.224Q702.032 98.893 702 109h-9zm-16 0h8v58h-8zm-221 0h8v58h-8zm165.563 15.938L625 67l1 5 2.75-2.5C632 67 632 67 636 67v9l-8 2c-.907 3.629-1.194 6.583-1.316 10.297l-.127 3.652-.12 3.801-.13 3.848q-.16 4.701-.307 9.402-4 .062-8 0c-1.896-1.896-1.129-4.664-1.139-7.186l.006-2.626-.003-2.68q0-2.808.006-5.618.005-4.317-.007-8.632 0-2.722.004-5.445l-.006-2.627c.028-7.167.028-7.167 4.702-7.249M252 67h7l2 4 2.188-2C266 67 266 67 271 67v8l-4.437 1.25L262 78c-.907 3.629-1.194 6.583-1.316 10.297l-.127 3.652-.12 3.801-.13 3.848q-.16 4.701-.307 9.402h-8z"/><path fill="#fff" d="M107 54h9v8l3.938-.062C124 62 124 62 125 63q.062 4 0 8h-9l.063 3.938C116 79 116 79 115 80c-3.5.125-3.5.125-7 0-1-1-1-1-1.062-5.062L107 71h-9a256 256 0 0 1 0-8c1-1 1-1 5.063-1.062L107 62z"/><path fill="#0b1d3a" d="M235 67h8c1.538 3.076 1.13 6 1.133 9.422l.004 4.547-.012 4.781.012 4.734-.004 4.563-.004 4.183A60 60 0 0 1 243 109h-8z"/><path fill="#fff" d="M657.063 73.563C660 75 660 75 661.168 77.12c1.027 3.555 1.097 6.681 1.082 10.379l.016 3.906c-.254 3.427-.606 5.61-2.266 8.594l-4 3c-3.821-.91-4.782-1.673-7-5-2.02-7.793-2.069-15.917 2-23 3-2 3-2 6.063-1.437M435.688 89.813 440 90c-.484 8.226-.484 8.226-2.75 11.625C435 103 435 103 432.375 102.875 430 102 430 102 428 100c-.312-3.437-.312-3.437 0-7 3-3 3-3 7.688-3.187M775 73c3.5.125 3.5.125 7 1 2 4 2 4 2 10h-12c-1.078-4.314-.9-5.201 1-9zm-372 0c3.517 3.517 3.642 5.17 4 10-1 1-1 1-3.723 1.098l-3.34-.035-3.347-.028L394 84c-.195-4.3.004-6.009 2-10 2-1 2-1 7-1"/><path fill="#0b1d3a" d="M235 51h9v9h-9z"/></svg>